<svg version="1.2" xmlns="http://www.w3.org/2000/svg" viewBox="0 0 512 512" width="512" height="512">
	<title>새 프로젝트</title>
	<style>
		.s0 { fill: #1f2937 } 
		.s1 { fill: #ffffff } 
	</style>
	<path id="모양 3" class="s0" d="m256 512c-141.6 0-256-114.4-256-256 0-141.6 114.4-256 256-256 141.6 0 256 114.4 256 256 0 141.6-114.4 256-256 256z"/>
	<path id="모양 2" class="s1" d="m165.2 154.5c-23.9 0-43.2-19.4-43.2-43.3 0-23.9 19.3-43.2 43.2-43.2 23.9 0 43.3 19.3 43.3 43.2 0 23.9-19.4 43.3-43.3 43.3z"/>
	<path id="모양 2 copy" class="s1" d="m377.9 282.9c-44.2 0-79.9-35.8-79.9-80 0-44.2 35.7-79.9 79.9-79.9 44.2 0 80 35.7 80 79.9 0 44.2-35.8 80-80 80z"/>
	<path id="모양 2 copy 2" class="s1" d="m168.4 444.8c-62.7 0-113.4-50.7-113.4-113.4 0-62.7 50.7-113.4 113.4-113.4 62.7 0 113.4 50.7 113.4 113.4 0 62.7-50.7 113.4-113.4 113.4z"/>
</svg>