<svg version="1.2" xmlns="http://www.w3.org/2000/svg" viewBox="0 0 512 512" width="512" height="512">
	<title>새 프로젝트</title>
	<style>
		.s0 { fill: rgb(31 41 55) }
		.s1 { fill: #ffffff } 
	</style>
	<path id="모양 1" class="s0" d="m0 36c0-19.9 16.1-36 36-36h440c19.9 0 36 16.1 36 36v440c0 19.9-16.1 36-36 36h-440c-19.9 0-36-16.1-36-36z"/>
	<path id="모양 2" class="s1" d="m165.2 154.5c-23.9 0-43.2-19.4-43.2-43.3 0-23.9 19.3-43.2 43.2-43.2 23.9 0 43.3 19.3 43.3 43.2 0 23.9-19.4 43.3-43.3 43.3z"/>
	<path id="모양 2 copy" class="s1" d="m377.9 282.9c-44.2 0-79.9-35.8-79.9-80 0-44.2 35.7-79.9 79.9-79.9 44.2 0 80 35.7 80 79.9 0 44.2-35.8 80-80 80z"/>
	<path id="모양 2 copy 2" class="s1" d="m168.4 444.8c-62.7 0-113.4-50.7-113.4-113.4 0-62.7 50.7-113.4 113.4-113.4 62.7 0 113.4 50.7 113.4 113.4 0 62.7-50.7 113.4-113.4 113.4z"/>
</svg>